<svg width="24" height="24" viewBox="0 0 24 24" fill="none" xmlns="http://www.w3.org/2000/svg">
<path d="M14.2243 3H9.7851C8.80282 3 8 3.71489 8 4.6V5.4C8 6.28511 8.79338 7 9.77566 7H14.2243C15.2065 7 15.9999 6.28511 15.9999 5.4V4.6C16.0094 3.71489 15.2065 3 14.2243 3Z" fill="#0C93AB"/>
<path d="M16.8129 5.65854C16.8129 7.07838 15.6188 8.23926 14.1584 8.23926H9.84156C8.38117 8.23926 7.18714 7.07838 7.18714 5.65854C7.18714 5.15847 6.63605 4.84592 6.17681 5.0781C4.88175 5.74784 4 7.07838 4 8.60539V17.0084C4 19.2051 5.84615 21 8.10563 21H15.8944C18.1538 21 20 19.2051 20 17.0084V8.60539C20 7.07838 19.1183 5.74784 17.8232 5.0781C17.364 4.84592 16.8129 5.15847 16.8129 5.65854ZM15.0677 12.722L11.3938 16.294C11.256 16.4279 11.0815 16.4904 10.907 16.4904C10.7325 16.4904 10.558 16.4279 10.4202 16.294L9.04248 14.9545C8.77612 14.6955 8.77612 14.2669 9.04248 14.0079C9.30884 13.749 9.74971 13.749 10.0161 14.0079L10.907 14.8741L14.0941 11.7755C14.3605 11.5165 14.8014 11.5165 15.0677 11.7755C15.3341 12.0344 15.3341 12.4631 15.0677 12.722Z" fill="#0C93AB"/>
</svg>
